<svg width="506" height="81" viewBox="0 0 506 81" fill="none" xmlns="http://www.w3.org/2000/svg">
<path d="M0.863281 3.02148H74.6914V28.3145H52.9629V81H22.5918V28.3145H0.863281V3.02148ZM129.965 3.02148H160.385V81H129.965V52.1914L113.754 53.6074V81H83.3828V3.02148H113.754V31.1953L129.965 29.877V3.02148ZM172.445 3.02148H228.646V25.4824H202.816V31.8789H228.549V51.0195H202.816V58.3926H230.355V81H172.445V3.02148ZM266.977 3.02148H323.178V25.4824H297.348V31.8789H323.08V51.0195H297.348V58.3926H324.887V81H266.977V3.02148ZM336.508 3.02148H344.418L386.996 33.3926V3.02148H414.486V81H403.988L363.9 54.1934V81H336.508V3.02148ZM426.547 3.02148C446.306 1.55664 459.197 0.824219 465.219 0.824219C471.273 0.824219 476.042 1.39388 479.525 2.5332C483.041 3.63997 486.182 5.1862 488.949 7.17188C494.32 10.9805 498.373 16.0423 501.107 22.3574C503.874 28.6725 505.258 35.069 505.258 41.5469C505.258 48.0247 504.2 53.6888 502.084 58.5391C500.001 63.3568 497.104 67.4258 493.393 70.7461C485.808 77.6146 475.993 81.0326 463.949 81H426.547V3.02148ZM456.918 27.7773V57.5137C458.643 56.0488 460.515 54.6003 462.533 53.168C470.281 47.6016 474.154 41.7747 474.154 35.6875C474.154 32.7253 473.275 29.9909 471.518 27.4844C469.76 24.9453 467.465 23.6758 464.633 23.6758C461.833 23.6758 459.262 25.043 456.918 27.7773Z" fill="url(#paint0_linear)"/>
<defs>
<linearGradient id="paint0_linear" x1="253.5" y1="-38" x2="253.5" y2="131" gradientUnits="userSpaceOnUse">
<stop offset="0.229167" stop-color="#FF3451"/>
<stop offset="1" stop-color="#015F79"/>
</linearGradient>
</defs>
</svg>
