<svg width="619" height="252" viewBox="0 0 619 252" fill="none" xmlns="http://www.w3.org/2000/svg">
<path d="M105.373 3.02148C123.049 2.20768 135.744 1.80078 143.459 1.80078C157.814 1.80078 168.117 3.42839 174.367 6.68359C179.966 9.61328 182.766 14.0566 182.766 20.0137C182.766 23.5944 181.822 26.6055 179.934 29.0469C178.078 31.4557 175.23 33.5391 171.389 35.2969C176.206 36.9245 179.917 39.2357 182.521 42.2305C185.939 46.1693 187.648 51.5729 187.648 58.4414C187.648 73.2526 176.19 81.0814 153.273 81.9277C149.986 82.0579 147.43 82.123 145.607 82.123C143.785 82.123 142.206 82.1068 140.871 82.0742C139.536 82.0417 138.007 81.9928 136.281 81.9277C134.589 81.8952 132.733 81.8464 130.715 81.7812C128.729 81.7487 126.711 81.6836 124.66 81.5859C122.609 81.5208 120.591 81.4557 118.605 81.3906C116.62 81.3255 114.764 81.2441 113.039 81.1465C111.314 81.0814 109.784 81.0326 108.449 81C107.115 80.9349 106.089 80.8698 105.373 80.8047V3.02148ZM155.178 50.6777C155.178 47.9434 153.566 46.5762 150.344 46.5762C147.902 46.5436 144.11 47.9596 138.967 50.8242C137.762 51.4753 136.737 52.0286 135.891 52.4844V64.7891C136.346 64.6263 136.77 64.4635 137.16 64.3008C137.583 64.138 138.527 63.7799 139.992 63.2266C145.201 61.2734 148.749 59.6621 150.637 58.3926C153.697 56.3418 155.21 53.7702 155.178 50.6777ZM135.891 38.7148C141.424 36.5664 145.103 34.8574 146.926 33.5879C150.702 31.0488 152.59 28.3145 152.59 25.3848C152.59 23.334 151.516 22.0156 149.367 21.4297C148.781 21.2669 148.163 21.1855 147.512 21.1855C146.861 21.1855 146.096 21.2995 145.217 21.5273C144.37 21.7552 143.524 22.0482 142.678 22.4062C141.376 22.8945 139.927 23.6107 138.332 24.5547C136.77 25.4661 135.956 25.9544 135.891 26.0195V38.7148ZM247.17 27.6797C247.17 23.0898 245.461 20.7949 242.043 20.7949C240.578 20.7949 238.544 21.332 235.939 22.4062L229.445 25.0918V44.1836C241.262 39.7891 247.17 34.2878 247.17 27.6797ZM276.174 28.5098C276.174 38.9264 271.031 47.1947 260.744 53.3145L281.936 81H243.361L229.641 58.3926V81H197.756V3.02148C218.394 1.55664 231.919 0.824219 238.332 0.824219C244.745 0.824219 249.628 1.21484 252.98 1.99609C262.225 4.11198 268.833 8.63672 272.805 15.5703C275.018 19.5417 276.141 23.8548 276.174 28.5098ZM287.014 81L325.783 6.97656C327.118 4.33984 329.576 2.58203 333.156 1.70312C334.198 1.44271 335.484 1.3125 337.014 1.3125C338.544 1.3125 340.204 1.75195 341.994 2.63086C343.817 3.47721 345.249 4.82812 346.291 6.68359L387.893 81H348.293L345.217 73.2852H324.123L321.486 81H287.014ZM326.516 57.8066H342.287L334.816 36.7129L326.516 57.8066ZM425.686 81H395.314V3.02148H425.686V81ZM437.6 3.02148H445.51L488.088 33.3926V3.02148H515.578V81H505.08L464.992 54.1934V81H437.6V3.02148ZM0.441406 172.021H74.2695V197.314H52.541V250H22.1699V197.314H0.441406V172.021ZM132.375 196.68C132.375 192.09 130.666 189.795 127.248 189.795C125.783 189.795 123.749 190.332 121.145 191.406L114.65 194.092V213.184C126.467 208.789 132.375 203.288 132.375 196.68ZM161.379 197.51C161.379 207.926 156.236 216.195 145.949 222.314L167.141 250H128.566L114.846 227.393V250H82.9609V172.021C103.599 170.557 117.124 169.824 123.537 169.824C129.95 169.824 134.833 170.215 138.186 170.996C147.43 173.112 154.038 177.637 158.01 184.57C160.223 188.542 161.346 192.855 161.379 197.51ZM172.219 250L210.988 175.977C212.323 173.34 214.781 171.582 218.361 170.703C219.403 170.443 220.689 170.312 222.219 170.312C223.749 170.312 225.409 170.752 227.199 171.631C229.022 172.477 230.454 173.828 231.496 175.684L273.098 250H233.498L230.422 242.285H209.328L206.691 250H172.219ZM211.721 226.807H227.492L220.021 205.713L211.721 226.807ZM310.891 250H280.52V172.021H310.891V250ZM322.805 172.021H330.715L373.293 202.393V172.021H400.783V250H390.285L350.197 223.193V250H322.805V172.021ZM443.215 250H412.844V172.021H443.215V250ZM455.129 172.021H463.039L505.617 202.393V172.021H533.107V250H522.609L482.521 223.193V250H455.129V172.021ZM607.521 212.891L614.992 212.842C616.815 212.842 617.873 212.826 618.166 212.793V249.023C606.74 250.944 597.626 251.904 590.822 251.904C584.019 251.904 577.639 250.944 571.682 249.023C565.725 247.07 560.565 244.303 556.203 240.723C551.841 237.142 548.423 232.812 545.949 227.734C543.475 222.624 542.238 216.911 542.238 210.596C542.238 198.193 547.17 188.298 557.033 180.908C566.929 173.519 579.608 169.824 595.07 169.824C602.655 169.824 608.661 170.638 613.088 172.266C613.869 172.559 614.292 172.705 614.357 172.705V196.289C609.572 194.824 605.178 194.092 601.174 194.092C593.882 194.092 588.169 196.029 584.035 199.902C579.901 203.776 577.85 208.236 577.883 213.281C577.883 216.797 578.843 219.678 580.764 221.924C582.717 224.17 585.386 225.293 588.771 225.293C590.594 225.293 591.994 225.065 592.971 224.609C593.036 223.405 593.068 221.859 593.068 219.971V212.891C597.886 212.891 602.704 212.891 607.521 212.891Z" fill="url(#paint0_linear)"/>
<defs>
<linearGradient id="paint0_linear" x1="310.5" y1="-38" x2="310.5" y2="300" gradientUnits="userSpaceOnUse">
<stop offset="0.229167" stop-color="#FF3451"/>
<stop offset="1" stop-color="#015F79"/>
</linearGradient>
</defs>
</svg>
